<svg version="1.1" viewBox="0.0 0.0 960.0 540.0" fill="none" stroke="none" stroke-linecap="square" stroke-miterlimit="10" xmlns:xlink="http://www.w3.org/1999/xlink" xmlns="http://www.w3.org/2000/svg"><clipPath id="g3df7cb22c43_0_0.0"><path d="m0 0l960.0 0l0 540.0l-960.0 0l0 -540.0z" clip-rule="nonzero"/></clipPath><g clip-path="url(#g3df7cb22c43_0_0.0)"><path fill="#ffffff" d="m0 0l960.0 0l0 540.0l-960.0 0z" fill-rule="evenodd"/><path fill="#000000" fill-opacity="0.0" d="m92.35696 55.007874l0 0l0 421.41733l631.3386 0" fill-rule="evenodd"/><path stroke="#595959" stroke-width="1.0" stroke-linejoin="round" stroke-linecap="butt" d="m92.35696 55.007874l0 0l0 421.41733l631.3386 0" fill-rule="evenodd"/><path fill="#000000" fill-opacity="0.0" d="m299.27036 481.96588l217.51181 0l0 40.881897l-217.51181 0z" fill-rule="evenodd"/><path fill="#595959" d="m353.86414 514.00586l0 -17.18747l6.46875 0q1.71875 0 2.625 0.171875q1.265625 0.203125 2.109375 0.796875q0.859375 0.59375 1.375 1.671875q0.53125 1.0625 0.53125 2.328125q0 2.203125 -1.40625 3.71875q-1.390625 1.515625 -5.03125 1.515625l-4.40625 0l0 6.9843445l-2.265625 0zm2.265625 -9.0155945l4.4375 0q2.203125 0 3.125 -0.8125q0.9375 -0.828125 0.9375 -2.3125q0 -1.078125 -0.546875 -1.84375q-0.546875 -0.765625 -1.4375 -1.015625q-0.578125 -0.15625 -2.125 -0.15625l-4.390625 0l0 6.140625zm21.585938 7.4843445q-1.171875 0.984375 -2.265625 1.40625q-1.078125 0.40625 -2.3125 0.40625q-2.046875 0 -3.15625 -1.0q-1.09375 -1.0 -1.09375 -2.5624695q0 -0.921875 0.40625 -1.671875q0.421875 -0.75 1.09375 -1.203125q0.671875 -0.46875 1.515625 -0.703125q0.625 -0.15625 1.875 -0.3125q2.5625 -0.3125 3.765625 -0.734375q0.015625 -0.421875 0.015625 -0.546875q0 -1.28125 -0.609375 -1.8125q-0.796875 -0.71875 -2.390625 -0.71875q-1.5 0 -2.203125 0.53125q-0.703125 0.515625 -1.046875 1.84375l-2.0625 -0.28125q0.28125 -1.328125 0.921875 -2.140625q0.640625 -0.8125 1.859375 -1.25q1.21875 -0.453125 2.828125 -0.453125q1.59375 0 2.59375 0.375q1.0 0.375 1.46875 0.953125q0.46875 0.5625 0.65625 1.4375q0.09375 0.53125 0.09375 1.9375l0 2.8125q0 2.9375 0.140625 3.7187195q0.140625 0.78125 0.53125 1.5l-2.203125 0q-0.328125 -0.65625 -0.421875 -1.53125zm-0.171875 -4.7187195q-1.15625 0.46875 -3.453125 0.796875q-1.296875 0.1875 -1.84375 0.421875q-0.53125 0.234375 -0.828125 0.6875q-0.28125 0.453125 -0.28125 1.0q0 0.84375 0.625 1.4062195q0.640625 0.5625 1.875 0.5625q1.21875 0 2.171875 -0.53125q0.953125 -0.5312195 1.390625 -1.4530945q0.34375 -0.71875 0.34375 -2.109375l0 -0.78125zm5.3789062 6.2499695l0 -12.4530945l1.890625 0l0 1.890625q0.734375 -1.328125 1.34375 -1.75q0.625 -0.421875 1.359375 -0.421875q1.0625 0 2.171875 0.6875l-0.734375 1.953125q-0.765625 -0.453125 -1.546875 -0.453125q-0.6875 0 -1.25 0.421875q-0.546875 0.40625 -0.78125 1.140625q-0.34375 1.125 -0.34375 2.46875l0 6.5155945l-2.109375 0zm16.132812 -1.53125q-1.171875 0.984375 -2.265625 1.40625q-1.078125 0.40625 -2.3125 0.40625q-2.046875 0 -3.15625 -1.0q-1.09375 -1.0 -1.09375 -2.5624695q0 -0.921875 0.40625 -1.671875q0.421875 -0.75 1.09375 -1.203125q0.671875 -0.46875 1.515625 -0.703125q0.625 -0.15625 1.875 -0.3125q2.5625 -0.3125 3.765625 -0.734375q0.015625 -0.421875 0.015625 -0.546875q0 -1.28125 -0.609375 -1.8125q-0.796875 -0.71875 -2.390625 -0.71875q-1.5 0 -2.203125 0.53125q-0.703125 0.515625 -1.046875 1.84375l-2.0625 -0.28125q0.28125 -1.328125 0.921875 -2.140625q0.640625 -0.8125 1.859375 -1.25q1.21875 -0.453125 2.828125 -0.453125q1.59375 0 2.59375 0.375q1.0 0.375 1.46875 0.953125q0.46875 0.5625 0.65625 1.4375q0.09375 0.53125 0.09375 1.9375l0 2.8125q0 2.9375 0.140625 3.7187195q0.140625 0.78125 0.53125 1.5l-2.203125 0q-0.328125 -0.65625 -0.421875 -1.53125zm-0.171875 -4.7187195q-1.15625 0.46875 -3.453125 0.796875q-1.296875 0.1875 -1.84375 0.421875q-0.53125 0.234375 -0.828125 0.6875q-0.28125 0.453125 -0.28125 1.0q0 0.84375 0.625 1.4062195q0.640625 0.5625 1.875 0.5625q1.21875 0 2.171875 -0.53125q0.953125 -0.5312195 1.390625 -1.4530945q0.34375 -0.71875 0.34375 -2.109375l0 -0.78125zm5.3945312 6.2499695l0 -12.4530945l1.890625 0l0 1.75q0.59375 -0.90625 1.5625 -1.46875q0.96875 -0.5625 2.21875 -0.5625q1.375 0 2.25 0.578125q0.890625 0.578125 1.265625 1.609375q1.46875 -2.1875 3.84375 -2.1875q1.84375 0 2.84375 1.03125q1.0 1.03125 1.0 3.15625l0 8.5468445l-2.109375 0l0 -7.8437195q0 -1.265625 -0.203125 -1.8125q-0.203125 -0.5625 -0.75 -0.90625q-0.53125 -0.34375 -1.25 -0.34375q-1.3125 0 -2.1875 0.875q-0.859375 0.875 -0.859375 2.796875l0 7.2343445l-2.109375 0l0 -8.0937195q0 -1.40625 -0.515625 -2.109375q-0.515625 -0.703125 -1.6875 -0.703125q-0.890625 0 -1.65625 0.46875q-0.75 0.46875 -1.09375 1.375q-0.34375 0.90625 -0.34375 2.609375l0 6.4530945l-2.109375 0zm28.523438 -4.0155945l2.171875 0.28125q-0.515625 1.9062195 -1.90625 2.9687195q-1.390625 1.046875 -3.5625 1.046875q-2.734375 0 -4.34375 -1.671875q-1.59375 -1.6874695 -1.59375 -4.7343445q0 -3.140625 1.609375 -4.875q1.625 -1.734375 4.203125 -1.734375q2.5 0 4.078125 1.703125q1.59375 1.703125 1.59375 4.78125q0 0.1875 -0.015625 0.5625l-9.28125 0q0.109375 2.046875 1.15625 3.140625q1.046875 1.0937195 2.609375 1.0937195q1.15625 0 1.96875 -0.6093445q0.828125 -0.609375 1.3125 -1.953125zm-6.9375 -3.40625l6.953125 0q-0.140625 -1.5625 -0.796875 -2.359375q-1.0 -1.21875 -2.609375 -1.21875q-1.453125 0 -2.453125 0.984375q-0.984375 0.96875 -1.09375 2.59375zm16.363281 5.5312195l0.3125 1.859375q-0.890625 0.203125 -1.59375 0.203125q-1.15625 0 -1.796875 -0.359375q-0.625 -0.375 -0.890625 -0.96875q-0.25 -0.59375 -0.25 -2.4843445l0 -7.171875l-1.546875 0l0 -1.640625l1.546875 0l0 -3.078125l2.09375 -1.265625l0 4.34375l2.125 0l0 1.640625l-2.125 0l0 7.28125q0 0.90625 0.109375 1.171875q0.125 0.25 0.375 0.40621948q0.25 0.140625 0.71875 0.140625q0.34375 0 0.921875 -0.078125zm10.589844 -2.1249695l2.171875 0.28125q-0.515625 1.9062195 -1.90625 2.9687195q-1.390625 1.046875 -3.5625 1.046875q-2.734375 0 -4.34375 -1.671875q-1.59375 -1.6874695 -1.59375 -4.7343445q0 -3.140625 1.609375 -4.875q1.625 -1.734375 4.203125 -1.734375q2.5 0 4.078125 1.703125q1.59375 1.703125 1.59375 4.78125q0 0.1875 -0.015625 0.5625l-9.28125 0q0.109375 2.046875 1.15625 3.140625q1.046875 1.0937195 2.609375 1.0937195q1.15625 0 1.96875 -0.6093445q0.828125 -0.609375 1.3125 -1.953125zm-6.9375 -3.40625l6.953125 0q-0.140625 -1.5625 -0.796875 -2.359375q-1.0 -1.21875 -2.609375 -1.21875q-1.453125 0 -2.453125 0.984375q-0.984375 0.96875 -1.09375 2.59375zm11.738281 7.4218445l0 -12.4530945l1.890625 0l0 1.890625q0.734375 -1.328125 1.34375 -1.75q0.625 -0.421875 1.359375 -0.421875q1.0625 0 2.171875 0.6875l-0.734375 1.953125q-0.765625 -0.453125 -1.546875 -0.453125q-0.6875 0 -1.25 0.421875q-0.546875 0.40625 -0.78125 1.140625q-0.34375 1.125 -0.34375 2.46875l0 6.5155945l-2.109375 0z" fill-rule="nonzero"/><path fill="#000000" fill-opacity="0.0" d="m36.183727 378.75592l0 -217.51183l40.881893 0l0 217.51183z" fill-rule="evenodd"/><path fill="#595959" d="m62.19248 280.56445l0.578125 -2.28125q2.7968712 0.71875 4.281246 2.578125q1.46875 1.859375 1.46875 4.546875q0 2.765625 -1.125 4.515625q-1.140625 1.734375 -3.28125 2.640625q-2.1562462 0.90625 -4.609371 0.90625q-2.6875 0 -4.6875 -1.015625q-2.0 -1.03125 -3.03125 -2.921875q-1.03125 -1.890625 -1.03125 -4.171875q0 -2.578125 1.3125 -4.328125q1.3125 -1.765625 3.6875 -2.453125l0.53125 2.234375q-1.875 0.609375 -2.734375 1.75q-0.859375 1.125 -0.859375 2.84375q0 1.984375 0.953125 3.3125q0.953125 1.328125 2.546875 1.875q1.59375 0.53125 3.296875 0.53125q2.1875 0 3.828125 -0.625q1.6406212 -0.640625 2.4531212 -1.984375q0.796875 -1.359375 0.796875 -2.921875q0 -1.921875 -1.09375 -3.234375q-1.109375 -1.328125 -3.2812462 -1.796875zm-0.1875 -4.0195312q-3.46875 0 -5.125 -1.921875q-1.390625 -1.609375 -1.390625 -3.921875q0 -2.5625 1.6875 -4.1875q1.6875 -1.625 4.640625 -1.625q2.4062462 0 3.7812462 0.71875q1.375 0.71875 2.140625 2.09375q0.765625 1.375 0.765625 3.0q0 2.625 -1.671875 4.234375q-1.6875 1.609375 -4.828121 1.609375zm0 -2.171875q2.3906212 0 3.5781212 -1.03125q1.1875 -1.046875 1.1875 -2.640625q0 -1.5625 -1.1875 -2.609375q-1.203125 -1.046875 -3.6562462 -1.046875q-2.3125 0 -3.5 1.0625q-1.1875 1.046875 -1.1875 2.59375q0 1.59375 1.1875 2.640625q1.1875 1.03125 3.578125 1.03125zm2.4999962 -11.113281l-0.328125 -2.09375q1.25 -0.171875 1.921875 -0.96875q0.671875 -0.8125 0.671875 -2.25q0 -1.453125 -0.59375 -2.15625q-0.59375 -0.703125 -1.390625 -0.703125q-0.71875 0 -1.1249962 0.625q-0.28125 0.421875 -0.71875 2.15625q-0.578125 2.3125 -1.0 3.21875q-0.4375 0.890625 -1.1875 1.359375q-0.765625 0.453125 -1.671875 0.453125q-0.828125 0 -1.53125 -0.375q-0.71875 -0.390625 -1.1875 -1.046875q-0.359375 -0.484375 -0.609375 -1.328125q-0.265625 -0.859375 -0.265625 -1.828125q0 -1.46875 0.421875 -2.578125q0.421875 -1.109375 1.15625 -1.625q0.71875 -0.53125 1.921875 -0.734375l0.28125 2.0625q-0.96875 0.140625 -1.5 0.8125q-0.546875 0.671875 -0.546875 1.90625q0 1.453125 0.484375 2.078125q0.484375 0.625 1.125 0.625q0.40625 0 0.734375 -0.265625q0.34375 -0.25 0.5625 -0.8125q0.125 -0.3125 0.546875 -1.859375q0.59375 -2.234375 0.984375 -3.109375q0.375 -0.890625 1.109375 -1.390625q0.71875 -0.515625 1.7968712 -0.515625q1.046875 0 1.984375 0.625q0.9375 0.609375 1.453125 1.765625q0.5 1.15625 0.5 2.625q0 2.421875 -1.0 3.703125q-1.015625 1.265625 -3.0 1.625zm1.828125 -17.453125l1.859375 -0.3125q0.203125 0.890625 0.203125 1.59375q0 1.15625 -0.359375 1.796875q-0.375 0.625 -0.96875 0.890625q-0.59375 0.25 -2.484375 0.25l-7.171871 0l0 1.546875l-1.640625 0l0 -1.546875l-3.078125 0l-1.265625 -2.09375l4.34375 0l0 -2.125l1.640625 0l0 2.125l7.281246 0q0.90625 0 1.171875 -0.109375q0.25 -0.125 0.40625 -0.375q0.140625 -0.25 0.140625 -0.71875q0 -0.34375 -0.078125 -0.921875z" fill-rule="nonzero"/><path fill="#000000" fill-opacity="0.0" d="m137.27296 263.97507c16.811188 16.811188 43.55945 -19.307724 64.09448 -31.288712c13.234848 -7.721756 33.174606 -10.517899 45.92389 -2.0183716c18.774734 12.5164795 20.627945 41.172348 23.215225 63.587936c2.3820496 20.637604 10.545685 40.201233 16.653534 60.05774c3.2072449 10.426666 4.8806763 24.391754 14.637817 29.270325c30.90979 15.454895 45.072174 -56.631805 49.960632 -90.84253c2.926422 -20.47998 3.4190063 -41.85463 11.102356 -61.062973c1.7373047 -4.3432465 3.9022217 -11.104996 8.580048 -11.104996c22.66269 0 21.842163 53.52658 44.41208 51.47769c23.137665 -2.1004333 32.649017 -59.31511 51.98163 -46.43045c30.050293 20.027756 25.303345 97.653046 60.55902 89.83203c38.812378 -8.610016 30.30017 -77.26915 61.065613 -102.44882c6.2613525 -5.1244965 18.502686 -4.2049103 24.225769 1.5144348c10.406555 10.399841 20.872253 33.729004 34.317566 27.755905c19.351501 -8.596924 22.931274 -36.748077 39.868774 -49.456696c16.804688 -12.608963 38.579956 -16.672577 57.532776 -25.737534c12.122559 -5.7980957 20.269531 -19.456131 33.30713 -22.711288" fill-rule="evenodd"/><path stroke="#595959" stroke-width="4.0" stroke-linejoin="round" stroke-linecap="butt" d="m137.27296 263.97507c16.811188 16.811188 43.55945 -19.307724 64.09448 -31.288712c13.234848 -7.721756 33.174606 -10.517899 45.92389 -2.0183716c18.774734 12.5164795 20.627945 41.172348 23.215225 63.587936c2.3820496 20.637604 10.545685 40.201233 16.653534 60.05774c3.2072449 10.426666 4.8806763 24.391754 14.637817 29.270325c30.90979 15.454895 45.072174 -56.631805 49.960632 -90.84253c2.926422 -20.47998 3.4190063 -41.85463 11.102356 -61.062973c1.7373047 -4.3432465 3.9022217 -11.104996 8.580048 -11.104996c22.66269 0 21.842163 53.52658 44.41208 51.47769c23.137665 -2.1004333 32.649017 -59.31511 51.98163 -46.43045c30.050293 20.027756 25.303345 97.653046 60.55902 89.83203c38.812378 -8.610016 30.30017 -77.26915 61.065613 -102.44882c6.2613525 -5.1244965 18.502686 -4.2049103 24.225769 1.5144348c10.406555 10.399841 20.872253 33.729004 34.317566 27.755905c19.351501 -8.596924 22.931274 -36.748077 39.868774 -49.456696c16.804688 -12.608963 38.579956 -16.672577 57.532776 -25.737534c12.122559 -5.7980957 20.269531 -19.456131 33.30713 -22.711288" fill-rule="evenodd"/><path fill="#9900ff" d="m256.8819 269.4029c0 -6.7578735 5.873169 -12.236237 13.118103 -12.236237c7.244934 0 13.118103 5.478363 13.118103 12.236237c0 6.7578735 -5.873169 12.236206 -13.118103 12.236206c-7.244934 0 -13.118103 -5.4783325 -13.118103 -12.236206z" fill-rule="evenodd"/><path stroke="#595959" stroke-width="1.0" stroke-linejoin="round" stroke-linecap="butt" d="m256.8819 269.4029c0 -6.7578735 5.873169 -12.236237 13.118103 -12.236237c7.244934 0 13.118103 5.478363 13.118103 12.236237c0 6.7578735 -5.873169 12.236206 -13.118103 12.236206c-7.244934 0 -13.118103 -5.4783325 -13.118103 -12.236206z" fill-rule="evenodd"/><path fill="#ff00ff" d="m296.60104 384.82285c0 -6.7578735 5.873169 -12.236237 13.118103 -12.236237c7.244934 0 13.118134 5.478363 13.118134 12.236237c0 6.7578735 -5.8731995 12.236206 -13.118134 12.236206c-7.244934 0 -13.118103 -5.4783325 -13.118103 -12.236206z" fill-rule="evenodd"/><path stroke="#595959" stroke-width="1.0" stroke-linejoin="round" stroke-linecap="butt" d="m296.60104 384.82285c0 -6.7578735 5.873169 -12.236237 13.118103 -12.236237c7.244934 0 13.118134 5.478363 13.118134 12.236237c0 6.7578735 -5.8731995 12.236206 -13.118134 12.236206c-7.244934 0 -13.118103 -5.4783325 -13.118103 -12.236206z" fill-rule="evenodd"/><path fill="#eeeeee" d="m283.4589 261.0607l8.1753845 -24.709183l3.4201965 7.937454c22.395233 -17.262817 32.046326 -46.22142 24.362823 -73.102036c17.554108 29.599762 10.045654 67.726776 -17.52243 88.976974l3.4201965 7.9374695z" fill-rule="evenodd"/><path fill="#bebebe" d="m323.34796 178.90437c-14.926697 -34.641357 -55.455353 -50.469727 -90.523254 -35.353653l-6.840393 -15.874924c16.84021 -7.258995 35.838165 -7.6123123 52.814575 -0.9822159c16.97641 6.630089 30.540619 19.700493 37.70868 36.335854z" fill-rule="evenodd"/><path fill="#000000" fill-opacity="0.0" d="m323.34796 178.90437c-14.926697 -34.641357 -55.455353 -50.469727 -90.523254 -35.353653l-6.840393 -15.874924c16.84021 -7.258995 35.838165 -7.6123123 52.814575 -0.9822159c16.97641 6.630089 30.540619 19.700493 37.70868 36.335854l6.840393 15.874939c12.324341 28.601913 3.5005188 62.024673 -21.453094 81.25954l3.4201965 7.9374695l-21.85617 -7.04068l8.1753845 -24.709183l3.4201965 7.937454c22.395233 -17.262817 32.046326 -46.22142 24.362823 -73.102036" fill-rule="evenodd"/><path stroke="#595959" stroke-width="1.0" stroke-linejoin="round" stroke-linecap="butt" d="m323.34796 178.90437c-14.926697 -34.641357 -55.455353 -50.469727 -90.523254 -35.353653l-6.840393 -15.874924c16.84021 -7.258995 35.838165 -7.6123123 52.814575 -0.9822159c16.97641 6.630089 30.540619 19.700493 37.70868 36.335854l6.840393 15.874939c12.324341 28.601913 3.5005188 62.024673 -21.453094 81.25954l3.4201965 7.9374695l-21.85617 -7.04068l8.1753845 -24.709183l3.4201965 7.937454c22.395233 -17.262817 32.046326 -46.22142 24.362823 -73.102036" fill-rule="evenodd"/><path fill="#eeeeee" d="m293.6213 391.30606l-21.517761 -12.052246l2.6749573 7.759247c-26.579483 2.406372 -51.549225 -10.933228 -63.113373 -33.717102c6.1174774 31.090149 35.49907 52.22 68.46326 49.235596l2.6749573 7.759247z" fill-rule="evenodd"/><path fill="#bebebe" d="m213.80475 361.23962c-11.273651 -32.70163 7.380829 -68.786285 41.66597 -80.59735l-5.3498993 -15.518494c-16.464294 5.671875 -30.103653 17.349762 -37.917526 32.46472c-7.8138885 15.114929 -9.162247 32.42874 -3.7484436 48.13263z" fill-rule="evenodd"/><path fill="#000000" fill-opacity="0.0" d="m213.80475 361.23962c-11.273651 -32.70163 7.380829 -68.786285 41.66597 -80.59735l-5.3498993 -15.518494c-16.464294 5.671875 -30.103653 17.349762 -37.917526 32.46472c-7.8138885 15.114929 -9.162247 32.42874 -3.7484436 48.13263l5.3498993 15.518494c9.308197 27.000336 36.587692 43.98407 66.32364 41.29193l2.6749573 7.759247l10.817963 -18.984741l-21.517761 -12.052246l2.6749573 7.759247c-26.579483 2.406372 -51.549225 -10.933228 -63.113373 -33.717102" fill-rule="evenodd"/><path stroke="#595959" stroke-width="1.0" stroke-linejoin="round" stroke-linecap="butt" d="m213.80475 361.23962c-11.273651 -32.70163 7.380829 -68.786285 41.66597 -80.59735l-5.3498993 -15.518494c-16.464294 5.671875 -30.103653 17.349762 -37.917526 32.46472c-7.8138885 15.114929 -9.162247 32.42874 -3.7484436 48.13263l5.3498993 15.518494c9.308197 27.000336 36.587692 43.98407 66.32364 41.29193l2.6749573 7.759247l10.817963 -18.984741l-21.517761 -12.052246l2.6749573 7.759247c-26.579483 2.406372 -51.549225 -10.933228 -63.113373 -33.717102" fill-rule="evenodd"/><path fill="#000000" fill-opacity="0.0" d="m326.52493 100.30577l201.35434 0l0 73.16536l-201.35434 0z" fill-rule="evenodd"/><path fill="#595959" d="m337.29056 132.34578l0 -17.187508l2.265625 0l0 15.156258l8.46875 0l0 2.03125l-10.734375 0zm13.175781 -14.750008l0 -2.4375l2.109375 0l0 2.4375l-2.109375 0zm0 14.750008l0 -12.453133l2.109375 0l0 12.453133l-2.109375 0zm5.3164062 0l0 -12.453133l1.90625 0l0 1.78125q1.375 -2.0625 3.953125 -2.0625q1.125 0 2.0625 0.40625q0.953125 0.40625 1.421875 1.0625q0.46875 0.65625 0.65625 1.5625q0.125 0.578125 0.125 2.046875l0 7.6562576l-2.109375 0l0 -7.5781326q0 -1.28125 -0.25 -1.921875q-0.25 -0.640625 -0.875 -1.015625q-0.625 -0.390625 -1.46875 -0.390625q-1.34375 0 -2.328125 0.859375q-0.984375 0.859375 -0.984375 3.25l0 6.7968826l-2.109375 0zm21.878906 -4.015625l2.171875 0.28125q-0.515625 1.90625 -1.90625 2.96875q-1.390625 1.046875 -3.5625 1.046875q-2.734375 0 -4.34375 -1.671875q-1.59375 -1.6875 -1.59375 -4.7343826q0 -3.140625 1.609375 -4.875q1.625 -1.734375 4.203125 -1.734375q2.5 0 4.078125 1.703125q1.59375 1.703125 1.59375 4.78125q0 0.1875 -0.015625 0.5625l-9.28125 0q0.109375 2.0468826 1.15625 3.1406326q1.046875 1.09375 2.609375 1.09375q1.15625 0 1.96875 -0.609375q0.828125 -0.609375 1.3125 -1.953125zm-6.9375 -3.4062576l6.953125 0q-0.140625 -1.5625 -0.796875 -2.359375q-1.0 -1.21875 -2.609375 -1.21875q-1.453125 0 -2.453125 0.984375q-0.984375 0.96875 -1.09375 2.59375zm19.878906 5.8906326q-1.171875 0.984375 -2.265625 1.40625q-1.078125 0.40625 -2.3125 0.40625q-2.046875 0 -3.15625 -1.0q-1.09375 -1.0 -1.09375 -2.5625q0 -0.921875 0.40625 -1.6718826q0.421875 -0.75 1.09375 -1.203125q0.671875 -0.46875 1.515625 -0.703125q0.625 -0.15625 1.875 -0.3125q2.5625 -0.3125 3.765625 -0.734375q0.015625 -0.421875 0.015625 -0.546875q0 -1.28125 -0.609375 -1.8125q-0.796875 -0.71875 -2.390625 -0.71875q-1.5 0 -2.203125 0.53125q-0.703125 0.515625 -1.046875 1.84375l-2.0625 -0.28125q0.28125 -1.328125 0.921875 -2.140625q0.640625 -0.8125 1.859375 -1.25q1.21875 -0.453125 2.828125 -0.453125q1.59375 0 2.59375 0.375q1.0 0.375 1.46875 0.953125q0.46875 0.5625 0.65625 1.4375q0.09375 0.53125 0.09375 1.9375l0 2.8125q0 2.9375076 0.140625 3.7187576q0.140625 0.78125 0.53125 1.5l-2.203125 0q-0.328125 -0.65625 -0.421875 -1.53125zm-0.171875 -4.7187576q-1.15625 0.46875 -3.453125 0.796875q-1.296875 0.1875 -1.84375 0.421875q-0.53125 0.234375 -0.828125 0.6875076q-0.28125 0.453125 -0.28125 1.0q0 0.84375 0.625 1.40625q0.640625 0.5625 1.875 0.5625q1.21875 0 2.171875 -0.53125q0.953125 -0.53125 1.390625 -1.453125q0.34375 -0.71875 0.34375 -2.1093826l0 -0.78125zm5.3789062 6.2500076l0 -12.453133l1.890625 0l0 1.890625q0.734375 -1.328125 1.34375 -1.75q0.625 -0.421875 1.359375 -0.421875q1.0625 0 2.171875 0.6875l-0.734375 1.953125q-0.765625 -0.453125 -1.546875 -0.453125q-0.6875 0 -1.25 0.421875q-0.546875 0.40625 -0.78125 1.140625q-0.34375 1.125 -0.34375 2.46875l0 6.5156326l-2.109375 0z" fill-rule="nonzero"/><path fill="#595959" d="m337.7593 161.14578l0 -17.1875l2.28125 0l0 17.1875l-2.28125 0zm6.0117188 0l0 -12.453125l1.90625 0l0 1.78125q1.375 -2.0625 3.953125 -2.0625q1.125 0 2.0625 0.40625q0.953125 0.40625 1.421875 1.0625q0.46875 0.65625 0.65625 1.5625q0.125 0.578125 0.125 2.046875l0 7.65625l-2.109375 0l0 -7.578125q0 -1.28125 -0.25 -1.921875q-0.25 -0.640625 -0.875 -1.015625q-0.625 -0.390625 -1.46875 -0.390625q-1.34375 0 -2.328125 0.859375q-0.984375 0.859375 -0.984375 3.25l0 6.796875l-2.109375 0zm13.363281 -14.75l0 -2.4375l2.109375 0l0 2.4375l-2.109375 0zm0 14.75l0 -12.453125l2.109375 0l0 12.453125l-2.109375 0zm9.925781 -1.890625l0.3125 1.859375q-0.890625 0.203125 -1.59375 0.203125q-1.15625 0 -1.796875 -0.359375q-0.625 -0.375 -0.890625 -0.96875q-0.25 -0.59375 -0.25 -2.484375l0 -7.171875l-1.546875 0l0 -1.640625l1.546875 0l0 -3.078125l2.09375 -1.265625l0 4.34375l2.125 0l0 1.640625l-2.125 0l0 7.28125q0 0.90625 0.109375 1.171875q0.125 0.25 0.375 0.40625q0.25 0.140625 0.71875 0.140625q0.34375 0 0.921875 -0.078125zm2.0742188 -12.859375l0 -2.4375l2.109375 0l0 2.4375l-2.109375 0zm0 14.75l0 -12.453125l2.109375 0l0 12.453125l-2.109375 0zm13.441406 -1.53125q-1.171875 0.984375 -2.265625 1.40625q-1.078125 0.40625 -2.3125 0.40625q-2.046875 0 -3.15625 -1.0q-1.09375 -1.0 -1.09375 -2.5625q0 -0.921875 0.40625 -1.671875q0.421875 -0.75 1.09375 -1.203125q0.671875 -0.46875 1.515625 -0.703125q0.625 -0.15625 1.875 -0.3125q2.5625 -0.3125 3.765625 -0.734375q0.015625 -0.421875 0.015625 -0.546875q0 -1.28125 -0.609375 -1.8125q-0.796875 -0.71875 -2.390625 -0.71875q-1.5 0 -2.203125 0.53125q-0.703125 0.515625 -1.046875 1.84375l-2.0625 -0.28125q0.28125 -1.328125 0.921875 -2.140625q0.640625 -0.8125 1.859375 -1.25q1.21875 -0.453125 2.828125 -0.453125q1.59375 0 2.59375 0.375q1.0 0.375 1.46875 0.953125q0.46875 0.5625 0.65625 1.4375q0.09375 0.53125 0.09375 1.9375l0 2.8125q0 2.9375 0.140625 3.71875q0.140625 0.78125 0.53125 1.5l-2.203125 0q-0.328125 -0.65625 -0.421875 -1.53125zm-0.171875 -4.71875q-1.15625 0.46875 -3.453125 0.796875q-1.296875 0.1875 -1.84375 0.421875q-0.53125 0.234375 -0.828125 0.6875q-0.28125 0.453125 -0.28125 1.0q0 0.84375 0.625 1.40625q0.640625 0.5625 1.875 0.5625q1.21875 0 2.171875 -0.53125q0.953125 -0.53125 1.390625 -1.453125q0.34375 -0.71875 0.34375 -2.109375l0 -0.78125zm5.3476562 6.25l0 -17.1875l2.109375 0l0 17.1875l-2.109375 0zm5.3945312 -14.75l0 -2.4375l2.109375 0l0 2.4375l-2.109375 0zm0 14.75l0 -12.453125l2.109375 0l0 12.453125l-2.109375 0zm4.2070312 0l0 -1.71875l7.921875 -9.09375q-1.34375 0.078125 -2.375 0.078125l-5.078125 0l0 -1.71875l10.171875 0l0 1.40625l-6.734375 7.890625l-1.296875 1.4375q1.40625 -0.09375 2.65625 -0.09375l5.75 0l0 1.8125l-11.015625 0zm21.234375 -1.53125q-1.171875 0.984375 -2.265625 1.40625q-1.078125 0.40625 -2.3125 0.40625q-2.046875 0 -3.15625 -1.0q-1.09375 -1.0 -1.09375 -2.5625q0 -0.921875 0.40625 -1.671875q0.421875 -0.75 1.09375 -1.203125q0.671875 -0.46875 1.515625 -0.703125q0.625 -0.15625 1.875 -0.3125q2.5625 -0.3125 3.765625 -0.734375q0.015625 -0.421875 0.015625 -0.546875q0 -1.28125 -0.609375 -1.8125q-0.796875 -0.71875 -2.390625 -0.71875q-1.5 0 -2.203125 0.53125q-0.703125 0.515625 -1.046875 1.84375l-2.0625 -0.28125q0.28125 -1.328125 0.921875 -2.140625q0.640625 -0.8125 1.859375 -1.25q1.21875 -0.453125 2.828125 -0.453125q1.59375 0 2.59375 0.375q1.0 0.375 1.46875 0.953125q0.46875 0.5625 0.65625 1.4375q0.09375 0.53125 0.09375 1.9375l0 2.8125q0 2.9375 0.140625 3.71875q0.140625 0.78125 0.53125 1.5l-2.203125 0q-0.328125 -0.65625 -0.421875 -1.53125zm-0.171875 -4.71875q-1.15625 0.46875 -3.453125 0.796875q-1.296875 0.1875 -1.84375 0.421875q-0.53125 0.234375 -0.828125 0.6875q-0.28125 0.453125 -0.28125 1.0q0 0.84375 0.625 1.40625q0.640625 0.5625 1.875 0.5625q1.21875 0 2.171875 -0.53125q0.953125 -0.53125 1.390625 -1.453125q0.34375 -0.71875 0.34375 -2.109375l0 -0.78125zm10.003906 4.359375l0.3125 1.859375q-0.890625 0.203125 -1.59375 0.203125q-1.15625 0 -1.796875 -0.359375q-0.625 -0.375 -0.890625 -0.96875q-0.25 -0.59375 -0.25 -2.484375l0 -7.171875l-1.546875 0l0 -1.640625l1.546875 0l0 -3.078125l2.09375 -1.265625l0 4.34375l2.125 0l0 1.640625l-2.125 0l0 7.28125q0 0.90625 0.109375 1.171875q0.125 0.25 0.375 0.40625q0.25 0.140625 0.71875 0.140625q0.34375 0 0.921875 -0.078125zm2.0742188 -12.859375l0 -2.4375l2.109375 0l0 2.4375l-2.109375 0zm0 14.75l0 -12.453125l2.109375 0l0 12.453125l-2.109375 0zm4.5351562 -6.21875q0 -3.46875 1.921875 -5.125q1.609375 -1.390625 3.921875 -1.390625q2.5625 0 4.1875 1.6875q1.625 1.6875 1.625 4.640625q0 2.40625 -0.71875 3.78125q-0.71875 1.375 -2.09375 2.140625q-1.375 0.765625 -3.0 0.765625q-2.625 0 -4.234375 -1.671875q-1.609375 -1.6875 -1.609375 -4.828125zm2.171875 0q0 2.390625 1.03125 3.578125q1.046875 1.1875 2.640625 1.1875q1.5625 0 2.609375 -1.1875q1.046875 -1.203125 1.046875 -3.65625q0 -2.3125 -1.0625 -3.5q-1.046875 -1.1875 -2.59375 -1.1875q-1.59375 0 -2.640625 1.1875q-1.03125 1.1875 -1.03125 3.578125zm11.957031 6.21875l0 -12.453125l1.90625 0l0 1.78125q1.375 -2.0625 3.953125 -2.0625q1.125 0 2.0625 0.40625q0.953125 0.40625 1.421875 1.0625q0.46875 0.65625 0.65625 1.5625q0.125 0.578125 0.125 2.046875l0 7.65625l-2.109375 0l0 -7.578125q0 -1.28125 -0.25 -1.921875q-0.25 -0.640625 -0.875 -1.015625q-0.625 -0.390625 -1.46875 -0.390625q-1.34375 0 -2.328125 0.859375q-0.984375 0.859375 -0.984375 3.25l0 6.796875l-2.109375 0z" fill-rule="nonzero"/><path fill="#000000" fill-opacity="0.0" d="m102.808395 368.54724l201.35432 0l0 73.165344l-201.35432 0z" fill-rule="evenodd"/><path fill="#595959" d="m113.63652 400.58725l0 -17.1875l2.328125 0l9.03125 13.5l0 -13.5l2.171875 0l0 17.1875l-2.328125 0l-9.015625 -13.5l0 13.5l-2.1875 0zm16.300781 -6.21875q0 -3.46875 1.921875 -5.125q1.609375 -1.390625 3.921875 -1.390625q2.5625 0 4.1875 1.6875q1.625 1.6875 1.625 4.640625q0 2.40625 -0.71875 3.78125q-0.71875 1.375 -2.09375 2.140625q-1.375 0.765625 -3.0 0.765625q-2.625 0 -4.234375 -1.671875q-1.609375 -1.6875 -1.609375 -4.828125zm2.171875 0q0 2.390625 1.03125 3.578125q1.046875 1.1875 2.640625 1.1875q1.5625 0 2.609375 -1.1875q1.046875 -1.203125 1.046875 -3.65625q0 -2.3125 -1.0625 -3.5q-1.046875 -1.1875 -2.59375 -1.1875q-1.59375 0 -2.640625 1.1875q-1.03125 1.1875 -1.03125 3.578125zm11.957031 6.21875l0 -12.453125l1.90625 0l0 1.78125q1.375 -2.0625 3.953125 -2.0625q1.125 0 2.0625 0.40625q0.953125 0.40625 1.421875 1.0625q0.46875 0.65625 0.65625 1.5625q0.125 0.578125 0.125 2.046875l0 7.65625l-2.109375 0l0 -7.578125q0 -1.28125 -0.25 -1.921875q-0.25 -0.640625 -0.875 -1.015625q-0.625 -0.390625 -1.46875 -0.390625q-1.34375 0 -2.328125 0.859375q-0.984375 0.859375 -0.984375 3.25l0 6.796875l-2.109375 0zm13.300781 0l0 -17.1875l2.109375 0l0 17.1875l-2.109375 0zm5.3945312 -14.75l0 -2.4375l2.109375 0l0 2.4375l-2.109375 0zm0 14.75l0 -12.453125l2.109375 0l0 12.453125l-2.109375 0zm5.3164062 0l0 -12.453125l1.90625 0l0 1.78125q1.375 -2.0625 3.953125 -2.0625q1.125 0 2.0625 0.40625q0.953125 0.40625 1.421875 1.0625q0.46875 0.65625 0.65625 1.5625q0.125 0.578125 0.125 2.046875l0 7.65625l-2.109375 0l0 -7.578125q0 -1.28125 -0.25 -1.921875q-0.25 -0.640625 -0.875 -1.015625q-0.625 -0.390625 -1.46875 -0.390625q-1.34375 0 -2.328125 0.859375q-0.984375 0.859375 -0.984375 3.25l0 6.796875l-2.109375 0zm21.878906 -4.015625l2.171875 0.28125q-0.515625 1.90625 -1.90625 2.96875q-1.390625 1.046875 -3.5625 1.046875q-2.734375 0 -4.34375 -1.671875q-1.59375 -1.6875 -1.59375 -4.734375q0 -3.140625 1.609375 -4.875q1.625 -1.734375 4.203125 -1.734375q2.5 0 4.078125 1.703125q1.59375 1.703125 1.59375 4.78125q0 0.1875 -0.015625 0.5625l-9.28125 0q0.109375 2.046875 1.15625 3.140625q1.046875 1.09375 2.609375 1.09375q1.15625 0 1.96875 -0.609375q0.828125 -0.609375 1.3125 -1.953125zm-6.9375 -3.40625l6.953125 0q-0.140625 -1.5625 -0.796875 -2.359375q-1.0 -1.21875 -2.609375 -1.21875q-1.453125 0 -2.453125 0.984375q-0.984375 0.96875 -1.09375 2.59375zm19.878906 5.890625q-1.171875 0.984375 -2.265625 1.40625q-1.078125 0.40625 -2.3125 0.40625q-2.046875 0 -3.15625 -1.0q-1.09375 -1.0 -1.09375 -2.5625q0 -0.921875 0.40625 -1.671875q0.421875 -0.75 1.09375 -1.203125q0.671875 -0.46875 1.515625 -0.703125q0.625 -0.15625 1.875 -0.3125q2.5625 -0.3125 3.765625 -0.734375q0.015625 -0.421875 0.015625 -0.546875q0 -1.28125 -0.609375 -1.8125q-0.796875 -0.71875 -2.390625 -0.71875q-1.5 0 -2.203125 0.53125q-0.703125 0.515625 -1.046875 1.84375l-2.0625 -0.28125q0.28125 -1.328125 0.921875 -2.140625q0.640625 -0.8125 1.859375 -1.25q1.21875 -0.453125 2.828125 -0.453125q1.59375 0 2.59375 0.375q1.0 0.375 1.46875 0.953125q0.46875 0.5625 0.65625 1.4375q0.09375 0.53125 0.09375 1.9375l0 2.8125q0 2.9375 0.140625 3.71875q0.140625 0.78125 0.53125 1.5l-2.203125 0q-0.328125 -0.65625 -0.421875 -1.53125zm-0.171875 -4.71875q-1.15625 0.46875 -3.453125 0.796875q-1.296875 0.1875 -1.84375 0.421875q-0.53125 0.234375 -0.828125 0.6875q-0.28125 0.453125 -0.28125 1.0q0 0.84375 0.625 1.40625q0.640625 0.5625 1.875 0.5625q1.21875 0 2.171875 -0.53125q0.953125 -0.53125 1.390625 -1.453125q0.34375 -0.71875 0.34375 -2.109375l0 -0.78125zm5.3789062 6.25l0 -12.453125l1.890625 0l0 1.890625q0.734375 -1.328125 1.34375 -1.75q0.625 -0.421875 1.359375 -0.421875q1.0625 0 2.171875 0.6875l-0.734375 1.953125q-0.765625 -0.453125 -1.546875 -0.453125q-0.6875 0 -1.25 0.421875q-0.546875 0.40625 -0.78125 1.140625q-0.34375 1.125 -0.34375 2.46875l0 6.515625l-2.109375 0z" fill-rule="nonzero"/><path fill="#595959" d="m113.69902 429.38724l0 -17.1875l7.609375 0q2.296875 0 3.484375 0.46875q1.203125 0.46875 1.921875 1.640625q0.71875 1.171875 0.71875 2.578125q0 1.828125 -1.1875 3.09375q-1.1875 1.25 -3.65625 1.59375q0.90625 0.421875 1.375 0.84375q1.0 0.921875 1.890625 2.296875l2.984375 4.671875l-2.859375 0l-2.28125 -3.578125q-0.984375 -1.546875 -1.640625 -2.359375q-0.640625 -0.828125 -1.15625 -1.15625q-0.5 -0.328125 -1.03125 -0.453125q-0.390625 -0.078125 -1.265625 -0.078125l-2.640625 0l0 7.625l-2.265625 0zm2.265625 -9.59375l4.890625 0q1.5625 0 2.4375 -0.328125q0.875 -0.328125 1.328125 -1.03125q0.46875 -0.703125 0.46875 -1.546875q0 -1.21875 -0.890625 -2.0q-0.875 -0.78125 -2.796875 -0.78125l-5.4375 0l0 5.6875zm23.285156 5.578125l2.171875 0.28125q-0.515625 1.90625 -1.90625 2.96875q-1.390625 1.046875 -3.5625 1.046875q-2.734375 0 -4.34375 -1.671875q-1.59375 -1.6875 -1.59375 -4.734375q0 -3.140625 1.609375 -4.875q1.625 -1.734375 4.203125 -1.734375q2.5 0 4.078125 1.703125q1.59375 1.703125 1.59375 4.78125q0 0.1875 -0.015625 0.5625l-9.28125 0q0.109375 2.046875 1.15625 3.140625q1.046875 1.09375 2.609375 1.09375q1.15625 0 1.96875 -0.609375q0.828125 -0.609375 1.3125 -1.953125zm-6.9375 -3.40625l6.953125 0q-0.140625 -1.5625 -0.796875 -2.359375q-1.0 -1.21875 -2.609375 -1.21875q-1.453125 0 -2.453125 0.984375q-0.984375 0.96875 -1.09375 2.59375zm12.269531 7.421875l0 -10.8125l-1.875 0l0 -1.640625l1.875 0l0 -1.3125q0 -1.265625 0.21875 -1.875q0.296875 -0.8125 1.0625 -1.3125q0.78125 -0.515625 2.15625 -0.515625q0.890625 0 1.96875 0.203125l-0.3125 1.84375q-0.65625 -0.125 -1.25 -0.125q-0.953125 0 -1.359375 0.421875q-0.390625 0.40625 -0.390625 1.53125l0 1.140625l2.421875 0l0 1.640625l-2.421875 0l0 10.8125l-2.09375 0zm6.1679688 -14.75l0 -2.4375l2.109375 0l0 2.4375l-2.109375 0zm0 14.75l0 -12.453125l2.109375 0l0 12.453125l-2.109375 0zm5.3164062 0l0 -12.453125l1.90625 0l0 1.78125q1.375 -2.0625 3.953125 -2.0625q1.125 0 2.0625 0.40625q0.953125 0.40625 1.421875 1.0625q0.46875 0.65625 0.65625 1.5625q0.125 0.578125 0.125 2.046875l0 7.65625l-2.109375 0l0 -7.578125q0 -1.28125 -0.25 -1.921875q-0.25 -0.640625 -0.875 -1.015625q-0.625 -0.390625 -1.46875 -0.390625q-1.34375 0 -2.328125 0.859375q-0.984375 0.859375 -0.984375 3.25l0 6.796875l-2.109375 0zm21.878906 -4.015625l2.171875 0.28125q-0.515625 1.90625 -1.90625 2.96875q-1.390625 1.046875 -3.5625 1.046875q-2.734375 0 -4.34375 -1.671875q-1.59375 -1.6875 -1.59375 -4.734375q0 -3.140625 1.609375 -4.875q1.625 -1.734375 4.203125 -1.734375q2.5 0 4.078125 1.703125q1.59375 1.703125 1.59375 4.78125q0 0.1875 -0.015625 0.5625l-9.28125 0q0.109375 2.046875 1.15625 3.140625q1.046875 1.09375 2.609375 1.09375q1.15625 0 1.96875 -0.609375q0.828125 -0.609375 1.3125 -1.953125zm-6.9375 -3.40625l6.953125 0q-0.140625 -1.5625 -0.796875 -2.359375q-1.0 -1.21875 -2.609375 -1.21875q-1.453125 0 -2.453125 0.984375q-0.984375 0.96875 -1.09375 2.59375zm11.753906 7.421875l0 -12.453125l1.890625 0l0 1.75q0.59375 -0.90625 1.5625 -1.46875q0.96875 -0.5625 2.21875 -0.5625q1.375 0 2.25 0.578125q0.890625 0.578125 1.265625 1.609375q1.46875 -2.1875 3.84375 -2.1875q1.84375 0 2.84375 1.03125q1.0 1.03125 1.0 3.15625l0 8.546875l-2.109375 0l0 -7.84375q0 -1.265625 -0.203125 -1.8125q-0.203125 -0.5625 -0.75 -0.90625q-0.53125 -0.34375 -1.25 -0.34375q-1.3125 0 -2.1875 0.875q-0.859375 0.875 -0.859375 2.796875l0 7.234375l-2.109375 0l0 -8.09375q0 -1.40625 -0.515625 -2.109375q-0.515625 -0.703125 -1.6875 -0.703125q-0.890625 0 -1.65625 0.46875q-0.75 0.46875 -1.09375 1.375q-0.34375 0.90625 -0.34375 2.609375l0 6.453125l-2.109375 0zm28.523438 -4.015625l2.171875 0.28125q-0.515625 1.90625 -1.90625 2.96875q-1.390625 1.046875 -3.5625 1.046875q-2.734375 0 -4.34375 -1.671875q-1.59375 -1.6875 -1.59375 -4.734375q0 -3.140625 1.609375 -4.875q1.625 -1.734375 4.203125 -1.734375q2.5 0 4.078125 1.703125q1.59375 1.703125 1.59375 4.78125q0 0.1875 -0.015625 0.5625l-9.28125 0q0.109375 2.046875 1.15625 3.140625q1.046875 1.09375 2.609375 1.09375q1.15625 0 1.96875 -0.609375q0.828125 -0.609375 1.3125 -1.953125zm-6.9375 -3.40625l6.953125 0q-0.140625 -1.5625 -0.796875 -2.359375q-1.0 -1.21875 -2.609375 -1.21875q-1.453125 0 -2.453125 0.984375q-0.984375 0.96875 -1.09375 2.59375zm11.753906 7.421875l0 -12.453125l1.90625 0l0 1.78125q1.375 -2.0625 3.953125 -2.0625q1.125 0 2.0625 0.40625q0.953125 0.40625 1.421875 1.0625q0.46875 0.65625 0.65625 1.5625q0.125 0.578125 0.125 2.046875l0 7.65625l-2.109375 0l0 -7.578125q0 -1.28125 -0.25 -1.921875q-0.25 -0.640625 -0.875 -1.015625q-0.625 -0.390625 -1.46875 -0.390625q-1.34375 0 -2.328125 0.859375q-0.984375 0.859375 -0.984375 3.25l0 6.796875l-2.109375 0zm17.957031 -1.890625l0.3125 1.859375q-0.890625 0.203125 -1.59375 0.203125q-1.15625 0 -1.796875 -0.359375q-0.625 -0.375 -0.890625 -0.96875q-0.25 -0.59375 -0.25 -2.484375l0 -7.171875l-1.546875 0l0 -1.640625l1.546875 0l0 -3.078125l2.09375 -1.265625l0 4.34375l2.125 0l0 1.640625l-2.125 0l0 7.28125q0 0.90625 0.109375 1.171875q0.125 0.25 0.375 0.40625q0.25 0.140625 0.71875 0.140625q0.34375 0 0.921875 -0.078125z" fill-rule="nonzero"/><path fill="#eeeeee" d="m128.12454 159.41336c-4.156166 -4.011215 -1.5673141 -11.559662 6.6680145 -19.44226c8.235336 -7.882614 20.672836 -14.716927 32.03482 -17.602913c2.0526886 -4.7175903 7.524582 -10.138786 14.760559 -14.623795c7.235977 -4.4850006 15.386139 -7.5070343 21.985199 -8.151978c1.6661987 -4.1732483 6.6996613 -9.066086 13.314255 -12.942291c6.614609 -3.8762054 13.874222 -6.187195 19.202744 -6.1129074c4.0286865 -5.631172 12.130096 -11.420654 20.79869 -14.863304c8.66861 -3.4426498 16.347443 -3.9201393 19.713837 -1.225853c7.11792 -2.8103142 13.74884 -3.8361282 18.179535 -2.8124046c4.4306946 1.0237236 6.2265625 3.996563 4.9235535 8.150425c8.534119 0.090286255 12.649994 4.083046 10.811737 10.488266c-1.8382874 6.40522 -9.354584 14.260582 -19.743927 20.634605c2.0388489 4.002548 -1.187561 10.395706 -8.435638 16.715263c-7.2480774 6.319565 -17.385986 11.578712 -26.506165 13.750328c-0.87524414 6.564148 -8.6035 15.174942 -19.845871 22.112213c-11.242355 6.937271 -23.983429 10.957382 -32.718582 10.323486c-6.9267426 6.3072968 -16.22696 12.022934 -25.802704 15.857559c-9.575729 3.8346252 -18.620377 5.465225 -25.093643 4.523987c-7.9712524 4.7720184 -16.838196 7.2125397 -22.20021 6.110367c-5.3620224 -1.1021881 -6.077667 -5.512451 -1.7917633 -11.042007c-8.267036 2.0897522 -13.907387 0.4914856 -13.979828 -3.9613495c-0.0724411 -4.45282 5.439438 -10.751205 13.661407 -15.610764z" fill-rule="evenodd"/><path fill="#000000" fill-opacity="0.0" d="m128.38086 179.2587c3.901245 -0.9861603 8.088684 -2.7238922 12.000107 -4.9798737m11.990234 9.912781c1.6671753 -0.99806213 3.2501678 -2.0721893 4.708145 -3.1947021m46.1857 -17.185791c-1.6095276 -0.11680603 -3.0508728 -0.3902893 -4.2994843 -0.81581116m56.86595 -31.62114c0.15956116 -1.1967316 0.0868988 -2.302002 -0.21678162 -3.2973633m35.15724 -27.167091c-2.1706848 -4.2613297 -9.92865 -5.083252 -19.94168 -2.1127243m28.873932 -29.009598c-0.695343 2.2166672 -2.2471008 4.6820297 -4.5336 7.2027893m-18.568329 -12.5419235c0.5586548 0.44712067 0.9881592 0.97437286 1.2825317 1.5744553m-41.79431 14.514534c-1.0049591 1.4046936 -1.727005 2.7604218 -2.1436768 4.0249634m-30.373795 15.030106c-0.40016174 1.0022812 -0.59695435 1.9418945 -0.58584595 2.7971954m-36.160446 19.978928c2.40419 -0.610672 4.7061768 -1.0298767 6.855377 -1.2483978m-45.557587 38.293327c0.5728302 0.5528412 1.2666626 1.0305176 2.0750275 1.4285583" fill-rule="evenodd"/><path stroke="#595959" stroke-width="1.0" stroke-linejoin="round" stroke-linecap="butt" d="m128.12454 159.41336c-4.156166 -4.011215 -1.5673141 -11.559662 6.6680145 -19.44226c8.235336 -7.882614 20.672836 -14.716927 32.03482 -17.602913c2.0526886 -4.7175903 7.524582 -10.138786 14.760559 -14.623795c7.235977 -4.4850006 15.386139 -7.5070343 21.985199 -8.151978c1.6661987 -4.1732483 6.6996613 -9.066086 13.314255 -12.942291c6.614609 -3.8762054 13.874222 -6.187195 19.202744 -6.1129074c4.0286865 -5.631172 12.130096 -11.420654 20.79869 -14.863304c8.66861 -3.4426498 16.347443 -3.9201393 19.713837 -1.225853c7.11792 -2.8103142 13.74884 -3.8361282 18.179535 -2.8124046c4.4306946 1.0237236 6.2265625 3.996563 4.9235535 8.150425c8.534119 0.090286255 12.649994 4.083046 10.811737 10.488266c-1.8382874 6.40522 -9.354584 14.260582 -19.743927 20.634605c2.0388489 4.002548 -1.187561 10.395706 -8.435638 16.715263c-7.2480774 6.319565 -17.385986 11.578712 -26.506165 13.750328c-0.87524414 6.564148 -8.6035 15.174942 -19.845871 22.112213c-11.242355 6.937271 -23.983429 10.957382 -32.718582 10.323486c-6.9267426 6.3072968 -16.22696 12.022934 -25.802704 15.857559c-9.575729 3.8346252 -18.620377 5.465225 -25.093643 4.523987c-7.9712524 4.7720184 -16.838196 7.2125397 -22.20021 6.110367c-5.3620224 -1.1021881 -6.077667 -5.512451 -1.7917633 -11.042007c-8.267036 2.0897522 -13.907387 0.4914856 -13.979828 -3.9613495c-0.0724411 -4.45282 5.439438 -10.751205 13.661407 -15.610764z" fill-rule="evenodd"/><path stroke="#595959" stroke-width="1.0" stroke-linejoin="round" stroke-linecap="butt" d="m128.38086 179.2587c3.901245 -0.9861603 8.088684 -2.7238922 12.000107 -4.9798737m11.990234 9.912781c1.6671753 -0.99806213 3.2501678 -2.0721893 4.708145 -3.1947021m46.1857 -17.185791c-1.6095276 -0.11680603 -3.0508728 -0.3902893 -4.2994843 -0.81581116m56.86595 -31.62114c0.15956116 -1.1967316 0.0868988 -2.302002 -0.21678162 -3.2973633m35.15724 -27.167091c-2.1706848 -4.2613297 -9.92865 -5.083252 -19.94168 -2.1127243m28.873932 -29.009598c-0.695343 2.2166672 -2.2471008 4.6820297 -4.5336 7.2027893m-18.568329 -12.5419235c0.5586548 0.44712067 0.9881592 0.97437286 1.2825317 1.5744553m-41.79431 14.514534c-1.0049591 1.4046936 -1.727005 2.7604218 -2.1436768 4.0249634m-30.373795 15.030106c-0.40016174 1.0022812 -0.59695435 1.9418945 -0.58584595 2.7971954m-36.160446 19.978928c2.40419 -0.610672 4.7061768 -1.0298767 6.855377 -1.2483978m-45.557587 38.293327c0.5728302 0.5528412 1.2666626 1.0305176 2.0750275 1.4285583" fill-rule="evenodd"/><path fill="#000000" d="m152.73685 152.66386l0.8975067 1.6817474l-1.557663 0.8313446l-0.7135773 -1.3371277q-0.573822 -1.0752106 -0.569397 -1.697464q0.006210327 -0.8180237 0.5602417 -1.5387878l0.64624023 0.3812561q-0.34547424 0.41462708 -0.35362244 0.897171q-0.015487671 0.46876526 0.3321228 1.1864929l0.7581482 -0.40463257zm2.4950104 -1.3316193l0.8975067 1.6817474l-1.557663 0.8313446l-0.7135773 -1.3371277q-0.573822 -1.0752106 -0.569397 -1.697464q-0.0075683594 -0.81066895 0.546463 -1.5314331l0.6600189 0.37390137q-0.34547424 0.41462708 -0.35362244 0.897171q-0.015487671 0.46875 0.3321228 1.1864929l0.7581482 -0.40463257zm4.2679596 4.824295q-1.2653351 -2.370987 -0.55903625 -4.2002563q0.5951538 -1.5397186 2.1803894 -2.3857727q1.7644196 -0.94169617 3.498932 -0.3796997q1.7271423 0.5482178 2.815918 2.588379q0.87542725 1.6403961 0.88679504 2.8563995q0.0039978027 1.2022247 -0.6675873 2.233673q-0.6578064 1.0241089 -1.774353 1.6200256q-1.7919922 0.95640564 -3.5053558 0.40083313q-1.7207184 -0.56936646 -2.875702 -2.7335815zm1.488739 -0.79455566q0.87542725 1.6403961 2.0198364 2.09227q1.1508331 0.43074036 2.2398224 -0.15046692q1.0751953 -0.5738373 1.3579559 -1.7697144q0.27540588 -1.2096558 -0.62210083 -2.8914032q-0.8460083 -1.5852509 -1.9968414 -2.0159912q-1.1508484 -0.43074036 -2.2260437 0.14311218q-1.088974 0.5812073 -1.3717346 1.7770691q-0.27633667 1.1747284 0.59910583 2.8151245zm16.06575 -3.084076l-0.66944885 -1.2544098q-0.220047 1.9771118 -1.9293365 2.8893738q-0.7581482 0.40464783 -1.574295 0.46829224q-0.80236816 0.05630493 -1.3548279 -0.21559143q-0.5524597 -0.27191162 -1.0149231 -0.839798q-0.31718445 -0.3620453 -0.8174286 -1.299408l-2.8175812 -5.279587l1.4473877 -0.77249146l2.5233154 4.728195q0.6032257 1.1303558 0.9130707 1.4786072q0.43946838 0.49160767 1.0571289 0.5870209q0.6176605 0.09541321 1.2655334 -0.2503662q0.6478729 -0.34577942 1.0364838 -0.9782562q0.39505005 -0.6536102 0.3277588 -1.3438568q-0.07463074 -0.7040405 -0.6558075 -1.7930298l-2.4423828 -4.5765686l1.4473724 -0.77249146l4.553726 8.532806l-1.2957458 0.69155884zm6.0359955 -4.8863373l0.8909302 1.1716309q-0.5403137 0.44776917 -1.0227814 0.7052765q-0.7857208 0.41934204 -1.3592377 0.40664673q-0.55973816 -0.020065308 -0.95228577 -0.32417297q-0.39988708 -0.31791687 -1.0914154 -1.613678l-2.626297 -4.9211884l-1.0614166 0.5664978l-0.59588623 -1.1165771l1.0614166 -0.56648254l-1.1255493 -2.109085l0.9701233 -1.6335754l1.5890198 2.9775238l1.4611664 -0.7798462l0.59588623 1.1165771l-1.4611664 0.7798462l2.6704407 5.0038757q0.3236847 0.60653687 0.48825073 0.7489624q0.17834473 0.13505554 0.40260315 0.15704346q0.23069763 8.544922E-4 0.5615387 -0.17570496q0.23432922 -0.1250763 0.60466003 -0.39356995zm3.8622742 -5.8869476q-1.2653351 -2.370987 -0.5590515 -4.2002716q0.59516907 -1.5397034 2.1803894 -2.3857727q1.7644348 -0.94169617 3.498932 -0.37968445q1.7271576 0.5482178 2.8159332 2.5883636q0.87542725 1.6403961 0.88679504 2.8563995q0.0039978027 1.2022247 -0.6675873 2.2336884q-0.6578064 1.0240936 -1.774353 1.6200104q-1.7919922 0.9564209 -3.5053558 0.4008484q-1.7207184 -0.56936646 -2.875702 -2.7335815zm1.4887238 -0.79455566q0.8754425 1.6403809 2.0198517 2.09227q1.1508331 0.43074036 2.2398071 -0.15046692q1.0752106 -0.57385254 1.3579712 -1.7697144q0.27539062 -1.2096558 -0.62210083 -2.8914032q-0.8460083 -1.5852661 -1.9968567 -2.0159912q-1.1508331 -0.43074036 -2.2260284 0.14309692q-1.0889893 0.5812073 -1.3717346 1.7770844q-0.27633667 1.1747284 0.5990906 2.8151245zm10.827621 -0.28840637l-3.95784 -7.4162292l-1.2819672 0.6842041l-0.59588623 -1.1165771l1.2819672 -0.6842041l-0.48553467 -0.90979004q-0.45611572 -0.85466003 -0.53253174 -1.362915q-0.09484863 -0.6755371 0.2450409 -1.2997284q0.3399048 -0.62418365 1.2910461 -1.1318207q0.6065216 -0.32370758 1.4244537 -0.5831375l0.45625305 1.38591q-0.48524475 0.15271759 -0.8849945 0.36606598q-0.66166687 0.3531494 -0.78286743 0.7897644q-0.12857056 0.4228363 0.2834015 1.1947937l0.41932678 0.7857361l1.6679382 -0.890213l0.59588623 1.1165771l-1.6679382 0.89019775l3.95784 7.4162292l-1.4335938 0.7651367zm11.266098 -7.677719l0.8909302 1.1716309q-0.5403137 0.44776917 -1.0227814 0.70526123q-0.7857208 0.4193573 -1.3592377 0.406662q-0.55973816 -0.020065308 -0.95228577 -0.32418823q-0.39988708 -0.3179016 -1.0914154 -1.613678l-2.626297 -4.921173l-1.0614166 0.56648254l-0.59588623 -1.1165619l1.0614166 -0.5664902l-1.1255493 -2.1090775l0.9701233 -1.6335754l1.5890198 2.9775162l1.4611664 -0.77983856l0.59588623 1.1165695l-1.4611664 0.7798462l2.6704407 5.0038834q0.3236847 0.60653687 0.48825073 0.74894714q0.17834473 0.1350708 0.40260315 0.15705872q0.23069763 8.544922E-4 0.5615387 -0.17572021q0.23432922 -0.12506104 0.60466003 -0.3935547zm2.1076202 0.539978l-6.289871 -11.786026l1.4473724 -0.77249146l2.258484 4.231941q0.3809662 -1.7087708 1.9248352 -2.5327606q0.95114136 -0.5076294 1.8389893 -0.5032959q0.90164185 -0.0030136108 1.5580139 0.49680328q0.6563873 0.4998169 1.3258362 1.7542343l2.8837738 5.4036484l-1.4473724 0.77249146l-2.883789 -5.403656q-0.5811615 -1.0889969 -1.314682 -1.3351135q-0.73350525 -0.24611664 -1.601944 0.21737671q-0.63409424 0.33842468 -1.0153351 0.9846878q-0.38861084 0.6324692 -0.33511353 1.3300705q0.067276 0.6902542 0.6043091 1.6965408l2.4938812 4.6730576l-1.4473877 0.77249146zm3.7538757 -15.003464l-0.890152 -1.6679688l1.4473877 -0.7724838l0.8901367 1.6679611l-1.4473724 0.77249146zm5.3997345 10.118057l-4.553726 -8.532806l1.4473724 -0.77249146l4.553726 8.532806l-1.4473724 0.77249146zm3.6566162 -1.9515915l-4.553726 -8.532806l1.2957458 -0.69155884l0.64738464 1.2130661q0.1869812 -1.9063263 1.9651794 -2.8553848q0.77194214 -0.41199493 1.5669556 -0.48207855q0.79499817 -0.07008362 1.3548126 0.21560669q0.5662384 0.26454163 1.021347 0.8186493q0.29605103 0.3556137 0.8330841 1.361908l2.8028564 5.252014l-1.4473877 0.77249146l-2.7734222 -5.1968765q-0.4708252 -0.88223267 -0.8780823 -1.2139206q-0.40081787 -0.35282898 -0.967926 -0.38667297q-0.5670929 -0.033843994 -1.1460419 0.2751541q-0.9235687 0.49291992 -1.2826843 1.4461594q-0.3526764 0.9320984 0.52275085 2.5724945l2.4865265 4.6592712l-1.4473724 0.7724838zm18.736237 -11.345848q-0.45280457 1.1095276 -1.0426941 1.7962875q-0.5834503 0.6656189 -1.4380951 1.1217499q-1.4060211 0.7504196 -2.532013 0.46581268q-1.1259766 -0.28460693 -1.6924286 -1.3460312q-0.33840942 -0.63410187 -0.32112122 -1.2986374q0.009918213 -0.67832184 0.30296326 -1.2243729q0.29948425 -0.5671921 0.79016113 -1.0416031q0.3546753 -0.33098602 1.1642609 -0.90476227q1.6402893 -1.1411133 2.3128815 -1.8720169q-0.14807129 -0.31062317 -0.18484497 -0.37954712q-0.4708252 -0.88222504 -1.0829926 -1.0337067q-0.8088684 -0.18818665 -1.9116364 0.40037537q-1.02005 0.54441833 -1.3112488 1.1603241q-0.29118347 0.61589813 -0.047348022 1.6369781l-1.5227966 0.5647888q-0.28520203 -0.9990082 -0.13835144 -1.7858276q0.13948059 -0.8006058 0.8184967 -1.5526505q0.6790161 -0.7520447 1.7680054 -1.3332443q1.102768 -0.58856964 1.917984 -0.68714905q0.82164 -0.11972046 1.3520355 0.110824585q0.5368042 0.20940399 0.97720337 0.735939q0.2675476 0.33540344 0.7825165 1.3003464l1.0299225 1.9298706q1.0740509 2.0125885 1.4574585 2.4986954q0.3760376 0.47232056 0.90278625 0.82878876l-1.5025177 0.801918q-0.47711182 -0.32982635 -0.84858704 -0.8931503zm-1.8528442 -3.1732178q-0.60917664 0.75019073 -2.062912 1.8094482q-0.8297882 0.6022644 -1.1136932 0.96632385q-0.28390503 0.36405945 -0.3288269 0.77767944q-0.031143188 0.40626526 0.17485046 0.79224396q0.30897522 0.5789566 0.95606995 0.72950745q0.64707947 0.15055084 1.4879456 -0.2982254q0.82707214 -0.4414215 1.2836761 -1.145607q0.46302795 -0.72532654 0.42788696 -1.521286q-0.03048706 -0.62132263 -0.5381012 -1.5724716l-0.28689575 -0.5376129zm0.59684753 -7.810356l-0.890152 -1.6679611l1.4473877 -0.77249146l0.8901367 1.6679688l-1.4473724 0.7724838zm5.3997345 10.118057l-4.553726 -8.532799l1.4473724 -0.77249146l4.553726 8.532806l-1.4473724 0.7724838zm3.6428223 -1.9442291l-4.553726 -8.532806l1.2957611 -0.69155884l0.69151306 1.2957764q0.01071167 -1.1746521 0.26976013 -1.684845q0.27282715 -0.5175476 0.78286743 -0.7897568q0.73057556 -0.3899231 1.7388611 -0.32588196l0.21733093 1.6019821q-0.7067871 -0.030128479 -1.2306061 0.24944305q-0.48246765 0.25749207 -0.7001648 0.7456131q-0.21768188 0.48812103 -0.118270874 1.0726624q0.16384888 0.90437317 0.6567383 1.8279572l2.3835297 4.4662857l-1.4335938 0.7651291zm-0.34985352 -12.954933l-0.890152 -1.6679611l1.5438843 -0.8239975l0.70622253 1.323349q0.573822 1.0752106 0.5758209 1.6763229q0.0084991455 0.84560394 -0.55288696 1.5525742l-0.6600189 -0.37389374q0.34547424 -0.41462708 0.35360718 -0.897171q0.014572144 -0.5036926 -0.31832886 -1.1938629l-0.7581482 0.4046402zm2.4812317 -1.3242722l-0.890152 -1.6679611l1.557663 -0.8313446l0.70622253 1.3233414q0.573822 1.0752182 0.57580566 1.6763306q0.008514404 0.8455963 -0.5528717 1.5525665l-0.6600189 -0.37389374q0.34547424 -0.41462708 0.35362244 -0.897171q0.014572144 -0.5036926 -0.3321228 -1.1865005l-0.7581482 0.40463257z" fill-rule="nonzero"/></g></svg>